<?xml version="1.0" standalone="no"?>
<!DOCTYPE svg PUBLIC "-//W3C//DTD SVG 1.1//EN" "http://www.w3.org/Graphics/SVG/1.1/DTD/svg11.dtd" >
<svg xmlns="http://www.w3.org/2000/svg">
<metadata>Generated by IcoMoon</metadata>
<defs>
<font id="icomoon" horiz-adv-x="1024">
<font-face units-per-em="1024" ascent="960" descent="-64" />
<missing-glyph horiz-adv-x="1024" />
<glyph unicode="&#x20;" horiz-adv-x="512" d="" />
<glyph unicode="&#xe900;" glyph-name="drag" horiz-adv-x="1345" d="M1216.629 496.104c19.897-21.302 84.27-143.376 98.783-187.267 23.408-69.523 31.718-126.522 25.866-168.189-5.99-45.017-25.057-84.754-53.201-116.195l0.181 0.206c-48.338-53.605-149.931-91.644-226.593-84.855-42.25 3.242-80.409 18.483-111.709 42.279l0.519-0.378c-7.491 5.735-49.743 47.636-95.857 94.453-75.024 76.545-82.983 85.207-88.367 96.208-3.901 6.512-6.208 14.367-6.208 22.76 0 0.228 0.002 0.455 0.005 0.683v-0.034c-0.068 1.057-0.107 2.292-0.107 3.536 0 23.307 13.625 43.432 33.345 52.844l0.353 0.152c8.363 5.771 18.716 9.217 29.874 9.217 6.063 0 11.889-1.018 17.316-2.892l-0.373 0.112c14.63-4.096 18.61-7.257 53.371-40.731l17.673-16.854-97.145 200.025-97.262 200.961v8.895c-0.001 0.148-0.002 0.322-0.002 0.497 0 16.823 7.099 31.988 18.464 42.663l0.031 0.029c11.637 10.004 26.656 16.372 43.135 17.198l0.171 0.007c14.543-0.665 27.738-5.938 38.287-14.38l-0.131 0.101c7.725-5.969 8.661-7.959 52.318-95.74 41.784-83.919 44.827-89.42 46.817-87.079 27.505 29.963 66.363 35.113 92.58 11.704l8.661-7.725 7.14 8.895c5.795 7.572 13.823 13.174 23.094 15.84l0.314 0.077c7.253 4.215 15.961 6.703 25.251 6.703 6.489 0 12.695-1.214 18.402-3.427l-0.347 0.119c11.17-4.021 20.566-10.666 27.777-19.215l0.079-0.096c2.341-4.682 3.862-3.862 11.704 5.267 10.577 12.999 26.574 21.235 44.495 21.235 16.22 0 30.864-6.747 41.278-17.588l0.018-0.019zM1269.298 341.491c-22.134 46.152-43.103 83.918-65.949 120.387l2.98-5.101c-13.694 21.887-19.663 26.803-31.133 26.1-9.818-1.802-18.071-7.41-23.328-15.206l-0.081-0.127c-6.905-13.694-6.671-15.45 10.534-52.669 5.24-10.259 10.427-22.642 14.74-35.428l0.593-2.025c-1.169-3.166-2.837-5.888-4.935-8.215l0.020 0.022c-2.39-3.497-6.359-5.762-10.857-5.762-0.298 0-0.594 0.010-0.887 0.030l0.040-0.002c-0.542-0.053-1.172-0.082-1.81-0.082-3.221 0-6.264 0.765-8.955 2.124l0.114-0.052c-10.010 14.855-19.69 31.973-28.036 49.84l-0.991 2.361c-22.121 44.944-24.93 49.977-31.25 55.010-4.547 4-10.551 6.441-17.124 6.441-5.202 0-10.047-1.529-14.111-4.162l0.101 0.062c-10.338-4.126-17.517-14.035-17.556-25.627v-0.005c0-6.554 2.458-12.875 19.546-47.519l19.663-40.145-2.575-7.374c-2.36-7.394-9.168-12.654-17.206-12.654-0.247 0-0.492 0.005-0.737 0.015l0.035-0.001c-9.48 0-13.109 5.969-41.901 64.49-22.238 45.295-27.973 55.712-32.069 58.521-16.152 11.704-45.997 0-48.455-19.312-1.17-7.608-0.702-8.661 22.355-55.478l23.408-47.87-2.224-7.959c-1.051-7.666-7.558-13.509-15.43-13.509-2.662 0-5.168 0.668-7.359 1.846l0.083-0.041-7.725 3.043-74.556 152.155-74.439 152.155-6.788 5.501c-4.172 3.093-9.299 5.126-14.871 5.61l-0.111 0.008c-0.129 0.002-0.282 0.003-0.435 0.003-15.029 0-27.617-10.453-30.89-24.484l-0.042-0.214c-1.287-6.554-0.819-7.374 112.594-240.638l113.765-234.084-2.809-6.437c-2.703-6.676-9.133-11.299-16.644-11.299-1.699 0-3.344 0.237-4.901 0.679l0.126-0.031c-21.142 16.871-40.034 33.834-57.902 51.815l-0.034 0.034c-62.383 59.925-62.383 59.925-82.632 49.977-10.3-5.033-13.109-7.257-16.152-12.992-2.113-4.655-3.345-10.095-3.345-15.822 0-4.215 0.667-8.273 1.901-12.077l-0.078 0.277c1.99-3.979 156.251-162.454 170.53-175.563 38.39-33.825 97.028-47.87 156.485-37.453 31.433 5.724 59.505 15.859 85.151 29.877l-1.466-0.734c17.512 7.053 32.582 16.448 45.702 28.005l-0.172-0.149c32.267 28.17 54.532 67.080 61.203 111.108l0.127 1.019c7.257 49.743-7.725 121.841-40.848 199.791zM306.745 444.371l2.341 271.303 215.942-147.005-218.283-124.299zM380.715 962.984c-211.453-0.067-382.844-171.499-382.844-382.961 0-211.504 171.458-382.961 382.961-382.961s382.961 171.458 382.961 382.961v0c0 211.504-171.458 382.961-382.961 382.961-0.041 0-0.082 0-0.123 0h0.006zM380.715 245.868c-184.434 0.067-333.921 149.595-333.921 334.038 0 184.484 149.554 334.038 334.038 334.038 184.443 0 333.971-149.487 334.038-333.914v-0.007c0-0.035 0-0.076 0-0.117 0-184.484-149.554-334.038-334.038-334.038-0.041 0-0.082 0-0.124 0h0.007z" />
<glyph unicode="&#xe901;" glyph-name="timeline" d="M127.994 789.332c0 27.833-17.83 51.499-42.665 60.289v46.377c0 11.789-9.559 21.338-21.327 21.338s-21.338-9.537-21.338-21.338v-46.377c-24.835-8.791-42.665-32.456-42.665-60.289s17.83-51.499 42.665-60.289v-220.759c-24.835-8.791-42.665-32.456-42.665-60.289s17.83-51.499 42.665-60.289v-220.759c-24.835-8.791-42.665-32.456-42.665-60.289s17.83-51.499 42.665-60.289v-46.367c0-11.801 9.559-21.338 21.338-21.338 11.768 0 21.327 9.537 21.327 21.338v46.356c24.835 8.791 42.665 32.456 42.665 60.289s-17.83 51.509-42.665 60.289v220.77c24.835 8.791 42.665 32.456 42.665 60.289s-17.83 51.499-42.665 60.289v220.759c24.823 8.78 42.665 32.456 42.665 60.289zM981.335 874.672h-618.672c0 0-28.58 2.544-37.338-6.171l-84.625-63.039c-8.747-8.715-8.747-22.831 0-31.546l84.625-63.039c8.758-8.715 37.338-6.874 37.338-6.874h618.672c23.589 0 42.665 19.086 42.665 42.665v85.329c0 23.579-19.086 42.675-42.665 42.675zM981.335 533.325h-618.672c0 0-28.58 2.544-37.338-6.16l-84.625-63.050c-8.747-8.704-8.747-22.831 0-31.535l84.625-63.039c8.758-8.715 37.338-6.886 37.338-6.886h618.672c23.589 0 42.665 19.086 42.665 42.665v85.34c0 23.589-19.086 42.665-42.665 42.665zM981.335 191.999h-618.672c0 0-28.58 2.533-37.338-6.16l-84.625-63.050c-8.747-8.715-8.747-22.831 0-31.546l84.625-63.039c8.758-8.715 37.338-6.874 37.338-6.874h618.672c23.589 0 42.665 19.086 42.665 42.665v85.329c0 23.589-19.086 42.675-42.665 42.675z" />
<glyph unicode="&#xe902;" glyph-name="arrow-left" d="M711.253 960l120.747-120.704-398.464-391.467 398.464-391.125-120.747-120.704-519.253 511.829z" />
<glyph unicode="&#xe903;" glyph-name="arrow-right" d="M312.747 960l-120.747-120.704 398.464-391.467-398.464-391.125 120.747-120.704 519.253 511.829z" />
<glyph unicode="&#xe904;" glyph-name="tap" d="M794.234 450.67c-11.821 11.796-27.426 18.153-44.219 17.892-13.059-0.203-25.159-4.645-35.036-12.017-10.029 25.283-34.732 43.208-63.542 43.208-15.273 0-29.389-5.039-40.779-13.535-7.912 28.976-34.471 50.338-65.922 50.338-14.213 0-27.428-4.364-38.372-11.819l0.002 187.171c0 37.674-30.649 68.323-68.323 68.323-18.238 0-35.397-7.098-48.322-20-12.907-12.911-20.016-30.071-20.016-48.322v-289.549c-5.444 0.984-10.997 1.479-16.627 1.479-33.974 0-61.614-27.599-61.614-61.521 0-2.758 0.196-5.589 0.581-8.416 1.88-13.8-2.23-27.799-11.278-38.402l-20.397-23.887c-19.429-22.73-23.772-54.911-11.066-81.978l59.754-127.487c10.073-21.486 25.818-39.768 45.535-52.87 11.934-7.932 21.71-13.704 29.041-17.15 5.283-2.491 9.723-6.405 12.858-11.349 3.119-4.903 4.769-10.575 4.769-16.404v-54.732c0-8.271 6.704-14.975 14.975-14.975h355.837c8.271 0 14.975 6.704 14.971 14.978 0 33.432 4.758 66.659 14.137 98.755 7.283 24.917 10.976 50.718 10.976 76.686v302.317c0 16.346-6.361 31.709-17.922 43.27zM782.208 105.081c0-23.122-3.288-46.097-9.773-68.283-8.773-30.029-13.821-60.973-15.045-92.182h-326.174v39.756c0 11.538-3.272 22.772-9.441 32.464-6.168 9.727-14.943 17.468-25.385 22.387-5.933 2.79-14.655 7.976-25.221 14.996-15.148 10.066-27.248 24.117-34.99 40.636l-59.759 127.496c-7.72 16.448-5.082 35.994 6.723 49.806l20.401 23.896c14.581 17.088 21.205 39.648 18.173 61.892-0.207 1.509-0.306 2.94-0.306 4.371 0 17.408 14.204 31.571 31.663 31.571 5.691 0 11.255-0.744 16.627-2.216v-156.321c0-8.271 6.704-14.975 14.975-14.975s14.975 6.704 14.975 14.975v476.555c0 10.25 3.993 19.89 11.236 27.133 7.26 7.248 16.904 11.238 27.152 11.238 21.157 0 38.372-17.215 38.372-38.372l-0.005-313.532c0-8.271 6.704-14.975 14.975-14.975s14.975 6.704 14.975 14.975v70.131c0.15 21.032 17.307 38.098 38.374 38.098 21.159 0 38.374-17.215 38.374-38.374v-36.807c0-8.271 6.704-14.975 14.975-14.975s14.975 6.704 14.975 14.975c0 21.161 17.217 38.376 38.376 38.376s38.374-17.215 38.374-38.379l0.005-25.064c0.002-8.271 6.707-14.973 14.978-14.973 8.269 0 14.973 6.704 14.973 14.975 0 17.521 13.777 31.99 30.716 32.255 8.448 0.152 16.554-3.115 22.585-9.135 5.896-5.893 9.14-13.734 9.14-22.081v-302.317zM531.989 616.961c6.421-5.211 15.853-4.23 21.065 2.191 21.33 26.283 33.077 59.416 33.077 93.295 0 81.66-66.436 148.096-148.096 148.096-81.658 0-148.093-66.436-148.093-148.096 0-34.844 12.344-68.698 34.759-95.327 2.965-3.518 7.197-5.331 11.464-5.331 3.407 0 6.829 1.154 9.635 3.518 6.329 5.327 7.14 14.775 1.813 21.102-17.876 21.237-27.721 48.242-27.721 76.038 0 65.145 52.999 118.145 118.142 118.145 65.145 0 118.145-52.999 118.145-118.145 0-27.417-9.124-53.154-26.382-74.421-5.214-6.423-4.232-15.853 2.191-21.065zM328.924 514.284c2.295-1.265 4.774-1.866 7.223-1.866 5.278 0 10.393 2.795 13.128 7.743 3.995 7.241 1.364 16.351-5.877 20.346-62.673 34.582-101.605 100.464-101.605 171.939 0 108.224 88.037 196.271 196.248 196.271 108.224 0 196.271-88.046 196.271-196.271 0-52.345-20.371-101.582-57.367-138.645-5.843-5.852-5.834-15.335 0.021-21.178 5.85-5.84 15.333-5.836 21.178 0.018 42.639 42.717 66.12 99.469 66.12 159.804 0 124.739-101.481 226.222-226.222 226.222-124.727 0-226.199-101.483-226.199-226.222 0-82.381 44.862-158.311 117.083-198.163z" />
<glyph unicode="&#xe905;" glyph-name="yoga" d="M811.255 670.008l-280.010 280.010c-6.394 6.394-15.065 9.987-24.106 9.987s-17.713-3.593-24.106-9.987l-280.013-280.010c-81.234-81.231-125.969-189.237-125.969-304.117s44.738-222.885 125.971-304.117c83.857-83.857 193.967-125.778 304.117-125.767 110.122 0.009 220.283 41.933 304.117 125.767 167.693 167.69 167.693 440.543 0 608.234zM763.040 109.988c-141.106-141.104-370.699-141.104-511.803 0v0c-141.104 141.106-141.104 370.699 0 511.806l255.902 255.904 255.904-255.902c68.353-68.355 105.997-159.235 105.997-255.902s-37.646-187.551-105.999-255.906zM531.245 467.863c-13.315 13.312-34.9 13.315-48.215 0l-38.933-38.933c-34.757-34.76-34.757-91.321 0.002-126.083 16.838-16.838 39.226-26.111 63.039-26.111s46.201 9.273 63.039 26.113c16.84 16.838 26.113 39.226 26.113 63.039s-9.273 46.201-26.113 63.041l-38.933 38.933zM521.962 351.068c-1.518-1.518-6.144-6.141-14.824-6.141-8.685 0-13.306 4.623-14.824 6.139-8.176 8.176-8.176 21.477 0 29.65l14.824 14.824 14.824-14.824c1.518-1.518 6.141-6.144 6.141-14.826 0-8.68-4.623-13.301-6.141-14.822zM650.536 509.291l-119.291 119.291c-13.312 13.315-34.9 13.315-48.215 0l-119.291-119.291c-38.253-38.253-59.321-89.18-59.321-143.4s21.068-105.147 59.321-143.402c38.305-38.303 89.23-59.396 143.398-59.396 54.17 0 105.095 21.095 143.4 59.4 38.305 38.303 59.398 89.23 59.398 143.398 0.002 54.168-21.093 105.097-59.398 143.4zM602.321 270.709c-25.427-25.425-59.23-39.428-95.185-39.428s-69.758 14.001-95.182 39.426c-52.486 52.486-52.486 137.886 0 190.369l95.185 95.182 95.182-95.182c25.425-25.427 39.428-59.23 39.428-95.185s-14.003-69.758-39.428-95.182zM730.894 589.65l-199.65 199.652c-6.394 6.394-15.065 9.987-24.106 9.987s-17.713-3.593-24.106-9.987l-199.65-199.652c-59.768-59.768-92.684-139.234-92.684-223.758s32.916-163.99 92.684-223.758c59.768-59.768 139.234-92.684 223.758-92.684s163.99 32.916 223.758 92.684c59.768 59.768 92.684 139.234 92.684 223.758s-32.918 163.99-92.689 223.758zM682.679 190.348c-46.888-46.89-109.231-72.712-175.541-72.712s-128.653 25.822-175.543 72.712c-46.89 46.89-72.712 109.233-72.712 175.543s25.822 128.653 72.712 175.543l175.543 175.543 175.543-175.543c46.89-46.89 72.712-109.233 72.712-175.543s-25.825-128.651-72.715-175.543z" />
<glyph unicode="&#xe906;" glyph-name="om" d="M514.090 406.352c-21.773 17.786-46.231 32.509-72.587 43.904 43.968 38.585 71.768 95.176 71.768 158.131 0 116.001-94.373 210.375-210.377 210.375-115.999 0-210.375-94.373-210.375-210.375 0-22.163 17.968-40.131 40.131-40.131s40.131 17.968 40.131 40.131c0 71.744 58.367 130.112 130.112 130.112s130.114-58.367 130.114-130.112c0-71.742-58.367-130.112-130.114-130.112-22.163 0-40.131-17.968-40.131-40.131s17.968-40.131 40.131-40.131c122.762 0 222.636-78.291 222.636-174.521s-99.874-174.521-222.636-174.521-222.631 78.286-222.631 174.518c0 22.163-17.968 40.131-40.131 40.131s-40.131-17.968-40.131-40.131c0-69.612 32.568-134.553 91.703-182.863 56.775-46.379 131.778-71.924 211.193-71.924s154.418 25.542 211.193 71.924c59.138 48.308 91.703 113.251 91.703 182.863s-32.565 134.553-91.703 182.863zM813.625 618.91c-56.117 0-108.885-21.826-148.601-61.46l-105.214-103.068c-15.833-15.509-16.095-40.918-0.583-56.751 15.509-15.833 40.921-16.095 56.751-0.586l105.35 103.202c0.096 0.096 0.195 0.193 0.292 0.289 24.577 24.577 57.249 38.109 92.005 38.109 71.742 0 130.112-58.367 130.112-130.112s-58.367-130.112-130.112-130.112c-22.163 0-40.131-17.968-40.131-40.131s17.968-40.131 40.131-40.131c115.999 0 210.375 94.373 210.375 210.375s-94.373 210.377-210.375 210.377zM778.971 657.235c83.829 0 162.685 32.686 222.031 92.035 15.673 15.67 15.673 41.081 0 56.754-15.67 15.673-41.081 15.673-56.754 0-44.19-44.19-102.886-68.526-165.277-68.526s-121.087 24.336-165.275 68.526c-15.667 15.673-41.079 15.673-56.754 0-15.673-15.67-15.673-41.081 0-56.754 59.349-59.352 138.199-92.035 222.029-92.035zM715.451 829.485c21.101-4.345 42.422-6.507 63.681-6.507 38.842 0 77.451 7.213 114.040 21.492 20.646 8.056 30.853 31.324 22.797 51.973-8.056 20.646-31.329 30.856-51.973 22.797-42.143-16.443-87.909-20.296-132.356-11.146-21.706 4.473-42.93-9.5-47.401-31.212s9.503-42.925 31.212-47.398z" />
<glyph unicode="&#xe907;" glyph-name="flower" d="M285.86 561.661v-114.825c0-124.695 101.446-226.141 226.141-226.141s226.141 101.446 226.141 226.141v114.825c0 93.272 27.77 183.307 80.304 260.377 6.808 9.989 7.534 22.925 1.885 33.612-5.651 10.687-16.747 17.374-28.837 17.374-55.122 0-106.93-14.403-151.923-39.588l-103.909 115.738c-6.182 6.886-14.999 10.822-24.256 10.826-0.004 0-0.009 0-0.013 0-9.25 0-18.067-3.929-24.251-10.807l-103.631-115.238c-44.78 24.865-96.258 39.068-151.003 39.068-12.090 0-23.186-6.686-28.835-17.374s-4.925-23.625 1.885-33.612c52.534-77.070 80.304-167.107 80.304-260.377zM511.373 878.584l74.568-83.057c-30.442-26.704-55.692-59.19-73.937-95.768-18.402 36.887-43.926 69.612-74.713 96.445l74.083 82.38zM479.385 560.915c0-18.013 14.603-32.616 32.616-32.616s32.616 14.603 32.616 32.616c0 114.816 78.795 211.581 185.144 239.063-37.352-73.594-56.853-154.817-56.853-238.318v-114.825c0-88.725-72.182-160.908-160.908-160.908s-160.908 72.182-160.908 160.908v114.825c0 83.5-19.5 164.724-56.853 238.318 106.349-27.483 185.144-124.247 185.144-239.063zM695.469 228.988c-62.637 0-113.594-50.96-113.594-113.597 0-18.013 14.603-32.616 32.616-32.616s32.616 14.603 32.616 32.616c0 26.667 21.696 48.364 48.361 48.364 37.831 0 68.608-30.777 68.608-68.608 0-51.784-42.13-93.914-93.914-93.914-69.225 0-125.545 56.32-125.545 125.545v50.055c0 18.013-14.603 32.616-32.616 32.616s-32.616-14.603-32.616-32.616v-50.055c0-69.225-56.32-125.545-125.547-125.545-51.784 0-93.914 42.13-93.914 93.914 0 37.831 30.777 68.608 68.608 68.608 26.667 0 48.361-21.696 48.361-48.364 0-18.013 14.603-32.616 32.616-32.616s32.616 14.603 32.616 32.616c0 62.637-50.96 113.597-113.594 113.597-73.8 0-133.841-60.040-133.841-133.841 0-87.753 71.393-159.147 159.147-159.147 65.755 0 123.845 33.436 158.164 84.203 34.317-50.764 92.409-84.203 158.162-84.203 87.753 0 159.147 71.393 159.147 159.147 0 73.8-60.040 133.841-133.841 133.841z" />
<glyph unicode="&#xe908;" glyph-name="chakra-3" d="M1019.564 49.298l-151.368 262.179c-36.407 63.063-100.722 101.504-173.049 103.837 34.44 63.92 33.414 139.079-3.102 202.321l-151.368 262.179c-5.916 10.245-16.848 16.557-28.678 16.557s-22.762-6.311-28.676-16.557l-151.368-262.179c-36.513-63.242-37.542-138.403-3.102-202.321-72.324-2.333-136.639-40.774-173.049-103.837l-151.366-262.179c-5.916-10.245-5.916-22.868 0-33.113 5.914-10.245 16.846-16.557 28.676-16.557h302.736c72.633 0 137.926 36.297 176.15 97.482 38.224-61.185 103.517-97.482 176.15-97.482h302.736c11.83 0 22.762 6.311 28.676 16.557s5.916 22.868 0 33.113zM389.309 584.521l122.692 212.509 122.694-212.509c25.608-44.354 25.608-97.316 0-141.67-25.61-44.354-71.476-70.836-122.694-70.836s-97.082 26.482-122.692 70.836c-25.608 44.354-25.608 97.316 0 141.67zM458.543 136.691c-25.608-44.354-71.474-70.836-122.692-70.836h-245.384l122.692 212.509c25.61 44.354 71.474 70.836 122.692 70.836s97.084-26.482 122.692-70.836c25.608-44.354 25.608-97.316 0-141.673zM688.151 65.854c-51.218 0-97.086 26.482-122.692 70.836-25.61 44.357-25.61 97.316 0 141.673s71.474 70.836 122.69 70.836c51.218 0 97.084-26.482 122.692-70.836l122.692-212.509h-245.382zM335.851 292.801c-47.021 0-85.274-38.255-85.274-85.274s38.255-85.274 85.274-85.274c47.019 0 85.274 38.255 85.274 85.274s-38.253 85.274-85.274 85.274zM335.851 188.48c-10.504 0-19.047 8.545-19.047 19.047s8.545 19.047 19.047 19.047c10.501 0 19.047-8.545 19.047-19.047s-8.543-19.047-19.047-19.047zM688.151 292.801c-47.021 0-85.274-38.255-85.274-85.274s38.253-85.274 85.274-85.274 85.274 38.255 85.274 85.274-38.253 85.274-85.274 85.274zM688.151 188.48c-10.504 0-19.047 8.545-19.047 19.047s8.543 19.047 19.047 19.047 19.047-8.545 19.047-19.047-8.543-19.047-19.047-19.047zM511.999 428.414c47.019 0 85.274 38.255 85.274 85.274s-38.255 85.274-85.274 85.274-85.274-38.255-85.274-85.274 38.255-85.274 85.274-85.274zM511.999 532.734c10.501 0 19.047-8.545 19.047-19.047s-8.545-19.047-19.047-19.047-19.047 8.545-19.047 19.047 8.545 19.047 19.047 19.047z" />
<glyph unicode="&#xe909;" glyph-name="hamsa" d="M888.133 563.468c-3.945 9.937-12.286 17.474-22.569 20.399-47.888 13.614-89.162 8.022-119.672-1.895v191.173c0 55.642-45.267 100.908-100.908 100.908-11.391 0-22.335-1.925-32.556-5.42-4.826 51.18-48.024 91.364-100.445 91.364s-95.616-40.183-100.443-91.364c-10.221 3.496-21.165 5.42-32.556 5.42-55.639 0-100.908-45.267-100.908-100.908v-191.173c-30.506 9.914-71.788 15.509-119.672 1.895-10.26-2.915-18.569-10.458-22.526-20.362s-3.076-21.117 2.349-30.297c0.672-1.14 67.304-115.759 67.304-276.646v-14.105c0-168.98 137.474-306.455 306.455-306.455s306.455 137.474 306.455 306.455v14.105c0 160.888 66.629 275.509 67.267 276.587 5.475 9.178 6.372 20.383 2.427 30.32zM749.622 256.557v-14.105c0-131.036-106.606-237.64-237.64-237.64s-237.64 106.604-237.64 237.64v14.105c0 118.734-31.877 213.793-54.635 266.524 41.454-1.246 68.625-21.321 71.199-23.296 10.228-8.545 24.241-10.217 36.332-4.588 12.132 5.645 19.651 18.014 19.651 31.393v246.556c0 17.697 14.396 32.093 32.093 32.093s32.093-14.396 32.093-32.093v-323.133c0-19.002 15.405-34.408 34.408-34.408s34.408 15.405 34.408 34.408v409.077c0 17.695 14.396 32.093 32.093 32.093 17.695 0 32.093-14.396 32.093-32.093v-409.077c0-19.002 15.405-34.408 34.408-34.408s34.408 15.405 34.408 34.408v323.133c0 17.697 14.396 32.093 32.093 32.093s32.093-14.396 32.093-32.093v-246.558c0-13.38 7.519-25.748 19.651-31.393 12.093-5.627 26.104-3.957 36.332 4.588 2.574 1.975 29.737 22.053 71.199 23.296-22.762-52.729-54.639-147.788-54.639-266.521zM322.218 282.222c-13.437-13.437-13.437-35.222 0-48.659 50.687-50.689 118.082-78.603 189.765-78.603s139.076 27.916 189.765 78.605c6.453 6.453 10.079 15.204 10.079 24.328 0 9.127-3.627 17.876-10.079 24.328-104.636 104.638-274.894 104.638-379.53 0zM472.884 288.046c-6.459-8.356-10.345-18.798-10.345-30.153s3.888-21.796 10.348-30.155c-25.51 5.060-50.224 15.089-72.534 30.155 22.31 15.064 47.021 25.095 72.531 30.153zM551.079 227.739c6.462 8.356 10.35 18.798 10.35 30.155 0 11.355-3.888 21.796-10.348 30.155 25.512-5.058 50.221-15.089 72.531-30.155-22.31-15.066-47.021-25.097-72.534-30.155zM167.913 624.213c9.061 0 17.915 3.67 24.315 10.070 6.423 6.423 10.093 15.277 10.093 24.338s-3.67 17.938-10.093 24.338c-6.4 6.4-15.254 10.070-24.315 10.070s-17.938-3.67-24.338-10.070c-6.4-6.423-10.070-15.277-10.070-24.338s3.67-17.915 10.070-24.338c6.4-6.402 15.277-10.070 24.338-10.070zM856.065 624.213c9.061 0 17.915 3.67 24.315 10.070 6.423 6.423 10.093 15.277 10.093 24.338s-3.67 17.915-10.093 24.338c-6.4 6.4-15.254 10.070-24.315 10.070s-17.938-3.67-24.338-10.070-10.070-15.277-10.070-24.338c0-9.061 3.67-17.915 10.070-24.338 6.4-6.402 15.277-10.070 24.338-10.070z" />
<glyph unicode="&#xe90a;" glyph-name="chakra-2" d="M512 793.928c-190.744 0-345.928-155.182-345.928-345.928s155.182-345.928 345.928-345.928 345.928 155.182 345.928 345.928-155.184 345.928-345.928 345.928zM788.79 434.211c-3.126-63.421-30.069-123.571-74.873-168.568-0.172-0.174-0.346-0.346-0.518-0.521-77.972-77.972-204.836-77.969-282.81 0-59.694 59.694-59.694 156.824 0 216.518 45.077 45.072 118.414 45.070 163.486 0 33.376-33.376 33.376-87.681 0-121.058-22.057-22.054-56.816-23.857-80.948-5.401-9.276 7.095-18.11 22.043-18.555 33.714-0.443 11.602 3.736 22.6 11.673 30.92 12.42 13.017 14.388 33.248 2.844 47.049-13.15 15.725-36.608 16.5-50.778 2.33-21.004-21.002-32.571-48.927-32.571-78.63s11.567-57.626 32.571-78.63c50.847-50.842 133.572-50.84 184.412 0 60.201 60.201 60.199 158.154 0 218.352-71.897 71.894-188.884 71.897-260.778 0-86.519-86.519-86.519-227.294 0-313.81 10.375-10.373 21.401-19.704 32.936-28.024-107.624 40.405-183.669 145.917-179.869 268.321 4.571 147.268 125.486 266.142 272.809 268.325 154.716 2.293 281.312-122.897 281.312-277.097-0.002-4.626-0.115-9.224-0.342-13.792zM512 812.033c19 0 34.399 15.402 34.399 34.399v79.169c0 18.998-15.399 34.399-34.399 34.399-18.998 0-34.399-15.402-34.399-34.399v-79.169c0-19 15.402-34.399 34.399-34.399zM512 83.967c-18.998 0-34.399-15.402-34.399-34.399v-79.169c0-18.998 15.402-34.399 34.399-34.399 19 0 34.399 15.402 34.399 34.399v79.169c-0.002 18.998-15.399 34.399-34.399 34.399zM282.995 775.852c6.371-11.038 17.933-17.204 29.822-17.204 5.834 0 11.751 1.486 17.167 4.614 16.452 9.499 22.089 30.537 12.59 46.989l-39.584 68.562c-9.499 16.452-30.537 22.091-46.989 12.59-16.452-9.499-22.089-30.537-12.59-46.989l39.584-68.562zM741.007 120.146c-9.501 16.454-30.54 22.089-46.989 12.59-16.454-9.499-22.091-30.537-12.59-46.989l39.584-68.562c6.371-11.038 17.933-17.204 29.822-17.204 5.836 0 11.751 1.486 17.167 4.614 16.452 9.499 22.091 30.537 12.59 46.989l-39.584 68.562zM81.187 657.010l68.562-39.584c5.417-3.128 11.331-4.614 17.167-4.614 11.888 0 23.453 6.169 29.822 17.204 9.499 16.452 3.862 37.491-12.59 46.989l-68.562 39.584c-16.454 9.503-37.493 3.864-46.989-12.59-9.501-16.452-3.864-37.491 12.59-46.989zM942.816 238.988l-68.562 39.584c-16.454 9.506-37.491 3.864-46.989-12.59-9.501-16.452-3.864-37.491 12.59-46.989l68.562-39.584c5.417-3.128 11.331-4.614 17.167-4.614 11.888 0 23.451 6.169 29.822 17.204 9.501 16.452 3.864 37.491-12.59 46.989zM147.967 448c0 18.998-15.402 34.399-34.399 34.399h-79.169c-18.998 0-34.399-15.402-34.399-34.399s15.402-34.399 34.399-34.399h79.169c18.998 0 34.399 15.402 34.399 34.399zM989.601 482.399h-79.169c-18.998 0-34.399-15.402-34.399-34.399s15.402-34.399 34.399-34.399h79.169c18.998 0 34.399 15.402 34.399 34.399s-15.402 34.399-34.399 34.399zM149.749 278.572l-68.562-39.584c-16.452-9.499-22.089-30.537-12.59-46.989 6.371-11.038 17.933-17.204 29.822-17.204 5.834 0 11.751 1.486 17.167 4.614l68.562 39.584c16.452 9.499 22.089 30.537 12.59 46.989-9.499 16.454-30.535 22.091-46.989 12.59zM857.084 612.809c5.836 0 11.751 1.486 17.167 4.614l68.562 39.584c16.454 9.499 22.091 30.537 12.59 46.989-9.501 16.454-30.537 22.087-46.989 12.59l-68.562-39.584c-16.454-9.499-22.091-30.537-12.59-46.989 6.371-11.035 17.933-17.204 29.822-17.204zM329.985 132.738c-16.454 9.503-37.493 3.864-46.989-12.59l-39.584-68.562c-9.499-16.452-3.862-37.491 12.59-46.989 5.417-3.128 11.331-4.614 17.167-4.614 11.888 0 23.451 6.169 29.822 17.204l39.584 68.562c9.499 16.452 3.862 37.491-12.59 46.989zM694.018 763.26c5.417-3.128 11.331-4.614 17.167-4.614 11.888 0 23.451 6.169 29.822 17.204l39.584 68.562c9.501 16.454 3.862 37.493-12.59 46.989-16.452 9.503-37.493 3.864-46.989-12.59l-39.587-68.56c-9.499-16.454-3.86-37.493 12.592-46.992z" />
<glyph unicode="&#xe90b;" glyph-name="lotus" d="M954.905 636.492c-49.524 1.738-98.118-4.368-144.371-17.767-3.183 48.426-14.067 95.898-32.556 141.649-6.686 16.546-25.524 24.533-42.057 17.851-43.479-17.567-83.354-41.174-119.013-70.398-21.436 40.866-48.917 78.176-82.057 111.315-6.059 6.059-14.276 9.464-22.844 9.464s-16.787-3.405-22.844-9.464c-33.142-33.142-60.626-70.454-82.061-111.324-35.684 29.237-75.561 52.844-119.033 70.406-16.551 6.686-35.373-1.307-42.057-17.851-18.487-45.751-29.37-93.225-32.554-141.647-46.246 13.395-94.836 19.501-144.365 17.767-17.832-0.622-31.785-15.583-31.163-33.416 4.284-122.645 56.070-236.284 145.825-319.98 34.122-31.819 72.186-57.841 112.991-77.665-30.202-44.525-47.468-96.934-49.367-151.386-0.62-17.826 13.324-32.784 31.15-33.413 3.248-0.114 6.595-0.17 10.229-0.17 43.27 0 85.152 9.785 122.99 27.723 20.714-37.51 46.612-71.923 77.413-102.721 6.059-6.059 14.276-9.464 22.844-9.464s16.787 3.405 22.844 9.464c30.801 30.801 56.699 65.213 77.415 102.726 37.84-17.94 79.722-27.727 122.994-27.727 3.636 0 6.983 0.056 10.231 0.17 17.826 0.629 31.77 15.588 31.15 33.413-1.9 54.448-19.168 106.859-49.378 151.395 40.801 19.824 78.865 45.843 112.98 77.656 89.753 83.696 141.539 197.333 145.823 319.98 0.627 17.83-13.324 32.791-31.158 33.413zM746.85 594.982c-43.963-20.27-84.881-47.661-121.314-81.637-22.286-20.783-42.227-43.416-59.687-67.572-4.661 22.31-10.993 44.301-18.997 65.879 19.781 44.932 47.332 85.24 82.070 119.959 29.517 29.554 63.212 53.942 100.475 72.767 11.026-35.606 16.856-72.227 17.453-109.396zM512.006 748.611c22.504-26.635 41.198-55.894 55.881-87.407-21.285-23.417-39.953-48.803-55.887-75.964-15.941 27.174-34.604 52.559-55.874 75.961 14.683 31.516 33.377 60.776 55.881 87.409zM294.595 704.378c37.265-18.823 70.967-43.214 100.522-72.784 37.626-37.605 66.876-81.839 86.938-131.478 19.148-47.36 28.856-97.164 28.856-148.026 0-0.536-0.004-1.038-0.006-1.559-24.8 61.065-62.799 116.526-112.44 162.815-36.437 33.978-77.359 61.373-121.322 81.641 0.597 37.168 6.427 73.786 17.453 109.392zM105.114 571.664c191.307-9.553 349.118-156.713 371.993-346.887-191.307 9.553-349.118 156.713-371.993 346.887zM358.69 180.76c31.639-9.964 64.442-16.456 97.942-19.348-35.987-41.167-86.072-67.942-140.682-74.669 6.664 34.217 21.296 66.422 42.74 94.017zM512.006 15.989c-17.393 20.585-32.504 42.742-45.258 66.29 16.583 13.072 31.779 28.016 45.262 44.62 13.481-16.602 28.675-31.546 45.255-44.618-12.753-23.549-27.865-45.708-45.26-66.293zM708.075 86.745c-54.612 6.727-104.696 33.502-140.684 74.669 33.495 2.895 66.297 9.387 97.933 19.351 21.446-27.6 36.080-59.807 42.75-94.020zM546.878 224.775c11.026 92.413 53.878 177.108 122.727 241.312s156.327 101.041 249.283 105.595c-22.874-190.187-180.686-337.371-372.010-346.906zM512.006 895.36c8.508 0 16.822 3.468 22.851 9.477 6.009 6.009 9.458 14.345 9.458 22.853 0 8.486-3.448 16.822-9.458 22.831-6.031 6.031-14.343 9.477-22.851 9.477s-16.824-3.446-22.853-9.477c-6.009-6.009-9.456-14.345-9.456-22.831 0-8.508 3.446-16.843 9.456-22.853 6.031-6.009 14.345-9.477 22.853-9.477zM275.963 830.764c8.506 0 16.841 3.446 22.851 9.456s9.458 14.345 9.458 22.853c0 8.508-3.448 16.822-9.458 22.831s-14.345 9.477-22.851 9.477c-8.508 0-16.824-3.468-22.853-9.477-6.009-6.009-9.456-14.323-9.456-22.831s3.446-16.843 9.456-22.853c6.029-6.009 14.343-9.456 22.853-9.456zM748.030 830.764c8.484 0 16.822 3.446 22.831 9.456 6.031 6.009 9.477 14.345 9.477 22.853s-3.448 16.822-9.477 22.831c-6.009 6.009-14.321 9.477-22.831 9.477s-16.843-3.468-22.853-9.477-9.456-14.345-9.456-22.831c0-8.508 3.446-16.843 9.456-22.853s14.345-9.456 22.853-9.456z" />
<glyph unicode="&#xe90c;" glyph-name="chakra-1" d="M943.169 237.654c0 0.002 0 0.002 0 0-11.567 6.676-19.84 17.454-23.296 30.355-3.458 12.901-1.682 26.375 5.005 37.951 10.241 17.743 15.653 37.922 15.653 58.348 0 31.788-13.033 61.909-35.21 83.638 14.913 14.501 25.7 32.802 31.224 53.424 8.075 30.146 3.931 61.633-11.667 88.663-4.403 7.627-6.729 16.248-6.729 24.936 0 17.821 9.579 34.43 25.005 43.361 0.009 0.004 0.018 0.011 0.027 0.016v0c0 0 0.002 0.002 0.004 0.002 15.981 9.236 21.449 29.678 12.215 45.661-9.234 15.981-29.673 21.453-45.658 12.217-11.562-6.68-25.034-8.452-37.938-4.998-12.901 3.458-23.679 11.732-30.364 23.314-20.832 36.046-59.629 58.437-101.257 58.437-10.673 0-21.284-1.484-31.52-4.365-12.892 50.503-58.771 87.959-113.234 87.959-13.36 0-25.919 5.201-35.342 14.624-9.454 9.47-14.662 22.033-14.662 35.377 0 18.459-14.965 33.423-33.423 33.423s-33.423-14.965-33.423-33.423c0-27.572-22.431-50.001-50.003-50.001-31.215 0-60.559-12.153-82.645-34.239-15.061-15.085-25.502-33.548-30.609-53.671-19.996 5.649-41.218 5.836-61.82 0.316-30.152-8.080-55.347-27.418-70.938-54.433-8.924-15.444-25.547-25.036-43.379-25.036-8.686 0-17.309 2.326-24.934 6.727-15.985 9.225-36.422 3.748-45.652-12.233-9.229-15.983-3.757-36.422 12.224-45.656 0.004-0.002 0.007-0.002 0.011-0.004s0.009-0.007 0.016-0.009c23.851-13.797 32.051-44.428 18.278-68.297-10.259-17.772-15.68-37.947-15.68-58.348 0-31.786 13.037-61.907 35.23-83.638-14.913-14.499-25.702-32.802-31.228-53.419-8.080-30.154-3.933-61.648 11.676-88.667 4.385-7.598 6.702-16.221 6.702-24.934 0-17.855-9.577-34.473-24.994-43.368-15.987-9.227-21.471-29.666-12.244-45.654 9.227-15.99 29.664-21.469 45.654-12.244 0.022 0.013 0.042 0.025 0.065 0.038 23.869 13.721 54.469 5.508 68.239-18.327 20.805-36.057 59.607-58.455 101.268-58.455 10.673 0 21.282 1.484 31.52 4.367 12.895-50.503 58.774-87.959 113.236-87.959 13.36 0 25.919-5.201 35.342-14.624 9.454-9.47 14.662-22.035 14.662-35.38 0-18.459 14.965-33.423 33.423-33.423s33.423 14.965 33.423 33.423c0 27.572 22.431 50.003 50.001 50.003 31.215 0 60.561 12.153 82.645 34.239 15.063 15.085 25.502 33.548 30.609 53.671 19.996-5.649 41.22-5.838 61.811-0.316 30.139 8.077 55.336 27.412 70.958 54.453 8.895 15.417 25.513 24.994 43.368 24.994 8.712 0 17.336-2.32 24.934-6.702l0.002-0.002c15.99-9.227 36.429-3.746 45.654 12.244 9.234 15.979 3.752 36.42-12.235 45.645zM715.251 719.404c7.625 4.401 16.248 6.727 24.934 6.727 17.832 0 34.455-9.595 43.368-25.018 15.6-27.035 40.796-46.374 70.949-54.453 0.374-0.1 0.749-0.198 1.123-0.296-2.832-10.105-4.323-20.658-4.323-31.398 0-20.399 5.421-40.576 15.678-58.348 6.678-11.571 8.452-25.052 4.996-37.955-3.456-12.901-11.725-23.677-23.294-30.355l-17.253-9.962c-8.971 95.156-59.654 178.358-133.539 231.051l17.362 10.009zM511.997 193.964c-140.072 0-254.030 113.958-254.030 254.030s113.958 254.028 254.030 254.028c140.072 0 254.028-113.958 254.028-254.028 0-140.072-113.956-254.030-254.028-254.030zM393.218 795.081c9.443 9.441 22.001 14.642 35.36 14.642 32.626 0 62.165 13.436 83.384 35.070 0.279-0.283 0.557-0.566 0.838-0.847 22.068-22.068 51.412-34.221 82.629-34.221 27.572 0 50.001-22.431 50.001-50.001v-19.945c-40.656 18.666-85.849 29.094-133.435 29.094-47.581 0-92.77-10.424-133.421-29.087v19.938c0.002 13.343 5.207 25.907 14.644 35.357zM157.029 556.619c16.302 28.252 19.43 60.561 11.302 89.753 29.996 7.763 56.263 27.293 72.125 54.741 6.674 11.564 17.454 19.838 30.353 23.294 12.904 3.458 26.373 1.685 37.942-5l17.347-10.018c-73.879-52.693-124.557-135.888-133.53-231.037l-17.249 9.96c-15.43 8.904-25.018 25.522-25.018 43.368 0 8.69 2.326 17.313 6.729 24.94zM308.757 176.588c-7.625-4.401-16.248-6.727-24.934-6.727-17.846 0-34.464 9.586-43.377 25.032-16.319 28.252-42.744 47.116-72.098 54.669 2.839 10.123 4.334 20.698 4.334 31.465 0 20.426-5.415 40.605-15.66 58.359-6.68 11.562-8.454 25.036-4.998 37.938s11.729 23.682 23.303 30.359l17.237 9.956c8.971-95.149 59.649-178.347 133.526-231.039l-17.333-10.011zM630.79 100.911c-9.441-9.441-21.999-14.642-35.36-14.642-32.626 0-62.165-13.436-83.384-35.070-0.279 0.285-0.557 0.566-0.838 0.849-22.068 22.068-51.412 34.221-82.629 34.221-27.572 0-50.001 22.431-50.001 50.001v19.931c40.652-18.661 85.84-29.085 133.421-29.085 47.586 0 92.779 10.426 133.435 29.094v-19.94c-0.002-13.345-5.21-25.91-14.644-35.36zM866.986 339.386c-15.613-27.031-19.762-58.524-11.683-88.679 0.1-0.374 0.203-0.746 0.307-1.121-29.996-7.77-56.236-27.285-72.049-54.692-13.795-23.882-44.431-32.097-68.331-18.291l-17.34 9.991c73.883 52.695 124.566 135.897 133.535 231.053l17.262-9.969c15.417-8.897 24.994-25.515 24.994-43.368 0.002-8.715-2.315-17.338-6.696-24.925zM511.997 654.743c-114.002 0-206.752-92.747-206.752-206.75s92.75-206.752 206.752-206.752 206.75 92.75 206.75 206.752-92.747 206.75-206.75 206.75zM511.997 308.091c-77.143 0-139.905 62.762-139.905 139.905s62.762 139.903 139.905 139.903 139.903-62.76 139.903-139.903-62.76-139.905-139.903-139.905zM511.988 481.422c-8.801 0-17.402-3.565-23.619-9.804-6.217-6.217-9.804-14.818-9.804-23.619s3.587-17.425 9.804-23.641 14.84-9.782 23.619-9.782c8.801 0 17.425 3.565 23.641 9.782s9.782 14.84 9.782 23.641c0 8.801-3.565 17.402-9.782 23.619-6.217 6.241-14.84 9.804-23.641 9.804z" />
<glyph unicode="&#xe90d;" glyph-name="chakra-4" d="M992.027 477.697c-32.322 0.002-58.618 26.292-58.62 58.59 0.011 32.727-12.733 63.508-35.89 86.679-10.495 10.495-22.549 18.855-35.711 24.866 4.173 46.496-18.691 93.284-60.718 117.613-13.533 7.84-23.212 20.464-27.247 35.532-4.046 15.136-1.969 30.926 5.845 44.465 0.002 0.004 0.004 0.009 0.006 0.011 0 0 0 0.002 0.002 0.002 8.831 15.291 3.596 34.846-11.695 43.676-15.289 8.829-34.843 3.596-43.676-11.691-7.835-13.561-20.477-23.261-35.6-27.311-15.121-4.050-30.909-1.969-44.488 5.874-28.379 16.357-61.404 20.697-93.020 12.218-14.336-3.858-27.592-10.12-39.339-18.48-38.179 26.842-90.134 30.425-132.24 6.194-13.529-7.797-29.291-9.86-44.36-5.823-15.146 4.069-27.799 13.774-35.624 27.328v0c-8.829 15.291-28.383 20.53-43.674 11.702s-20.53-28.383-11.702-43.674c0 0 0 0 0 0 7.829-13.558 9.909-29.355 5.862-44.476s-13.744-27.756-27.3-35.583c-28.372-16.383-48.651-42.817-57.096-74.421-3.841-14.334-5.054-28.954-3.681-43.352-42.35-19.627-71.437-62.821-71.494-111.385-0.026-15.652-6.119-30.35-17.139-41.368-11.101-11.075-25.825-17.176-41.464-17.178-17.655-0.006-31.968-14.321-31.966-31.979s14.317-31.97 31.974-31.97c15.649 0 30.363-6.094 41.432-17.161 11.071-11.071 17.167-25.791 17.165-41.464 0.013-32.735 12.757-63.508 35.916-86.681 10.508-10.485 22.564-18.832 35.687-24.828-4.173-46.486 18.693-93.263 60.724-117.594 13.535-7.842 23.212-20.464 27.249-35.54 4.046-15.116 1.987-30.887-5.798-44.414-0.017-0.030-0.036-0.060-0.051-0.090-8.822-15.293-3.581-34.841 11.71-43.668 5.035-2.905 10.53-4.286 15.952-4.286 11.047 0 21.797 5.734 27.718 15.988 0.004 0.009 0.011 0.017 0.015 0.028 7.818 13.543 20.449 23.233 35.564 27.283 15.119 4.054 30.919 1.974 44.465-5.838 28.349-16.387 61.38-20.737 93.033-12.248 14.345 3.86 27.605 10.122 39.358 18.48 38.173-26.838 90.117-30.421 132.197-6.209 13.55 7.791 29.34 9.858 44.395 5.834 15.142-4.078 27.786-13.776 35.604-27.309 0.004-0.006 0.006-0.013 0.011-0.019 5.921-10.259 16.668-15.99 27.718-15.99 5.423 0 10.922 1.381 15.956 4.289 15.291 8.829 20.53 28.383 11.702 43.674-7.827 13.558-9.905 29.353-5.853 44.478s13.75 27.765 27.309 35.594c28.332 16.357 48.613 42.773 57.115 74.425 3.83 14.339 5.037 28.954 3.668 43.342 42.329 19.637 71.413 62.836 71.49 111.415 0.013 15.605 6.107 30.288 17.144 41.33 11.084 11.071 25.81 17.171 41.468 17.173 17.657 0.002 31.968 14.317 31.968 31.972s-14.317 31.972-31.974 31.974zM677.255 418.041c22.549-12.996 41.402-31.874 54.519-54.594l38.629-66.907-77.266 0.006c-0.009 0-0.011 0-0.019 0-26.202 0-51.978 6.895-74.53 19.938-9.896 5.723-22.095 5.729-31.994 0.011-9.901-5.715-15.995-16.28-15.986-27.711 0.019-26.062-6.9-51.833-20.013-74.54l-38.605-66.895-38.627 66.905c-13.117 22.72-20.040 48.485-20.019 74.51 0.009 11.431-6.085 21.997-15.986 27.714-4.947 2.856-10.468 4.284-15.986 4.284-5.527 0-11.056-1.432-16.005-4.295-22.543-13.036-48.302-19.925-74.508-19.925-0.009 0-0.023 0-0.032 0h-77.241l38.623 66.899c13.1 22.7 31.953 41.577 54.521 54.585 9.903 5.708 16.005 16.27 16.005 27.703 0 11.431-6.105 21.991-16.007 27.701-22.549 12.994-41.4 31.872-54.519 54.592l-38.62 66.89h77.239c0.009 0 0.011 0 0.019 0 26.202 0 51.978-6.895 74.53-19.938 9.894-5.721 22.093-5.727 31.994-0.011s15.995 16.28 15.986 27.711c-0.019 26.062 6.9 51.833 20.008 74.532l38.633 66.905 38.623-66.897c13.117-22.72 20.040-48.485 20.021-74.51-0.009-11.431 6.085-21.997 15.986-27.714 9.899-5.715 22.095-5.71 31.991 0.011 22.53 13.030 48.285 19.914 74.495 19.914 0.009 0 0.019 0 0.028 0l77.251 0.004-38.635-66.907c-13.1-22.7-31.947-41.573-54.502-54.575-9.903-5.708-16.005-16.27-16.005-27.701-0.002-11.429 6.102-21.988 16.005-27.697zM612.275 800.615c28.345-16.376 61.372-20.729 92.997-12.256 1.837 0.492 3.655 1.023 5.459 1.596 0.403-1.839 0.85-3.677 1.339-5.508 8.449-31.55 28.679-57.951 56.975-74.342 18.629-10.783 29.421-30.734 29.385-51.237l-105.285-0.006c-0.013 0-0.028 0-0.040 0-21.681 0-43.163-3.308-63.665-9.715-4.706 20.974-12.589 41.246-23.442 60.042l-52.654 91.204c4.48 2.617 9.317 4.683 14.469 6.070 15.104 4.050 30.904 1.969 44.465-5.849zM227.514 674.452c4.039 15.106 13.733 27.741 27.3 35.575 28.349 16.368 48.626 42.796 57.094 74.419 0.49 1.829 0.936 3.664 1.341 5.501 1.803-0.573 3.624-1.106 5.463-1.599 31.572-8.46 64.546-4.133 92.839 12.169 18.657 10.738 41.321 10.108 59.078-0.177l-52.637-91.155c-10.851-18.791-18.736-39.070-23.438-60.057-20.522 6.418-42.009 9.73-63.699 9.73-0.006 0-0.021 0-0.028 0l-105.3 0.002c-0.030 5.203 0.603 10.431 1.987 15.592zM118.616 441.811c-1.341 1.341-2.705 2.645-4.097 3.916 1.39 1.268 2.756 2.571 4.097 3.907 23.095 23.093 35.843 53.816 35.894 86.523 0.026 21.509 11.883 40.812 29.694 51.045l52.626-91.151c10.851-18.795 24.467-35.758 40.277-50.32-15.82-14.567-29.438-31.531-40.279-50.322l-52.658-91.211c-4.51 2.571-8.718 5.723-12.491 9.487-11.062 11.071-17.161 25.8-17.167 41.455 0.002 32.742-12.746 63.523-35.896 86.67zM411.691 90.866c-18.883 10.894-39.835 16.459-61.065 16.459-10.647 0-21.366-1.4-31.925-4.229-1.831-0.49-3.649-1.021-5.444-1.592-0.405 1.844-0.853 3.685-1.345 5.521-8.447 31.55-28.677 57.951-56.972 74.342-18.61 10.773-29.397 30.683-29.357 51.235l105.236-0.002c0.017 0 0.032 0 0.047 0 21.684 0 43.169 3.31 63.68 9.724 4.706-20.972 12.589-41.244 23.44-60.040l52.658-91.211c-4.487-2.617-9.33-4.685-14.49-6.075-15.112-4.054-30.894-1.976-44.463 5.868zM796.491 217.040c-4.065-15.127-13.767-27.769-27.321-35.596-28.349-16.368-48.628-42.796-57.103-74.421-0.49-1.833-0.94-3.675-1.345-5.516-1.803 0.573-3.621 1.108-5.459 1.603-31.561 8.434-64.533 4.114-92.85-12.167-18.648-10.732-41.3-10.101-59.049 0.173l52.609 91.159c10.851 18.791 18.734 39.070 23.438 60.059 20.522-6.42 42.007-9.73 63.697-9.73 0.006 0 0.021 0 0.028 0l105.327-0.009c0.028-5.194-0.601-10.412-1.974-15.556zM905.352 441.803c-23.112-23.12-35.854-53.839-35.881-86.474-0.034-21.513-11.894-40.824-29.689-51.066l-52.631 91.157c-10.851 18.798-24.467 35.76-40.277 50.322 15.811 14.562 29.421 31.52 40.262 50.307l52.669 91.211c4.512-2.575 8.72-5.732 12.491-9.502 11.075-11.082 17.173-25.802 17.167-41.462 0.002-35.82 15.453-68.099 40.044-90.526-1.409-1.285-2.797-2.609-4.154-3.967zM543.49 563.293c-31.401 8.411-64.196 4.095-92.351-12.158-28.153-16.255-48.291-42.5-56.706-73.901-8.413-31.401-4.095-64.198 12.16-92.351 16.253-28.153 42.498-48.291 73.899-56.706 10.485-2.809 21.125-4.199 31.697-4.199 21.089 0 41.901 5.531 60.654 16.357 58.117 33.554 78.102 108.132 44.548 166.252-16.255 28.155-42.5 48.293-73.901 56.706zM567.782 430.787c-3.994-14.903-13.55-27.358-26.912-35.074-27.579-15.924-62.977-6.439-78.901 21.142-7.714 13.362-9.764 28.926-5.77 43.83 3.992 14.903 13.55 27.358 26.912 35.074 8.901 5.139 18.778 7.763 28.786 7.763 5.018 0 10.067-0.661 15.044-1.993 14.901-3.994 27.358-13.55 35.071-26.912v0c7.714-13.362 9.762-28.929 5.77-43.83z" />
<glyph unicode="&#xe910;" glyph-name="headphones" d="M288 384h-64v-448h64c17.6 0 32 14.4 32 32v384c0 17.6-14.4 32-32 32zM736 384c-17.602 0-32-14.4-32-32v-384c0-17.6 14.398-32 32-32h64v448h-64zM1024 448c0 282.77-229.23 512-512 512s-512-229.23-512-512c0-61.412 10.83-120.29 30.656-174.848-19.478-33.206-30.656-71.87-30.656-113.152 0-112.846 83.448-206.188 192-221.716v443.418c-31.914-4.566-61.664-15.842-87.754-32.378-5.392 26.718-8.246 54.364-8.246 82.676 0 229.75 186.25 416 416 416s416-186.25 416-416c0-28.314-2.83-55.968-8.22-82.696-26.1 16.546-55.854 27.848-87.78 32.418v-443.44c108.548 15.532 192 108.874 192 221.714 0 41.274-11.178 79.934-30.648 113.138 19.828 54.566 30.648 113.452 30.648 174.866z" />
<glyph unicode="&#xe911;" glyph-name="music" d="M960 960h64v-736c0-88.366-100.29-160-224-160s-224 71.634-224 160c0 88.368 100.29 160 224 160 62.684 0 119.342-18.4 160-48.040v368.040l-512-113.778v-494.222c0-88.366-100.288-160-224-160s-224 71.634-224 160c0 88.368 100.288 160 224 160 62.684 0 119.342-18.4 160-48.040v624.040l576 128z" />
<glyph unicode="&#xe962;" glyph-name="floppy-disk" d="M896 960h-896v-1024h1024v896l-128 128zM512 832h128v-256h-128v256zM896 64h-768v768h64v-320h576v320h74.978l53.022-53.018v-714.982z" />
<glyph unicode="&#xe965;" glyph-name="undo" d="M512 896c-141.384 0-269.376-57.32-362.032-149.978l-149.968 149.978v-384h384l-143.532 143.522c69.496 69.492 165.492 112.478 271.532 112.478 212.068 0 384-171.924 384-384 0-114.696-50.292-217.636-130.018-288l84.666-96c106.302 93.816 173.352 231.076 173.352 384 0 282.77-229.23 512-512 512z" />
<glyph unicode="&#xe984;" glyph-name="spinner11" d="M1024 576h-384l143.53 143.53c-72.53 72.526-168.96 112.47-271.53 112.47s-199-39.944-271.53-112.47c-72.526-72.53-112.47-168.96-112.47-271.53s39.944-199 112.47-271.53c72.53-72.526 168.96-112.47 271.53-112.47s199 39.944 271.528 112.472c6.056 6.054 11.86 12.292 17.456 18.668l96.32-84.282c-93.846-107.166-231.664-174.858-385.304-174.858-282.77 0-512 229.23-512 512s229.23 512 512 512c141.386 0 269.368-57.326 362.016-149.984l149.984 149.984v-384z" />
<glyph unicode="&#xe98f;" glyph-name="lock" d="M784 544h-16v192c0 105.87-86.13 192-192 192h-128c-105.87 0-192-86.13-192-192v-192h-16c-26.4 0-48-21.6-48-48v-480c0-26.4 21.6-48 48-48h544c26.4 0 48 21.6 48 48v480c0 26.4-21.6 48-48 48zM384 736c0 35.29 28.71 64 64 64h128c35.29 0 64-28.71 64-64v-192h-256v192z" />
<glyph unicode="&#xe990;" glyph-name="unlocked" d="M800 928c105.87 0 192-86.13 192-192v-192h-128v192c0 35.29-28.71 64-64 64h-128c-35.29 0-64-28.71-64-64v-192h16c26.4 0 48-21.6 48-48v-480c0-26.4-21.6-48-48-48h-544c-26.4 0-48 21.6-48 48v480c0 26.4 21.6 48 48 48h400v192c0 105.87 86.13 192 192 192h128z" />
<glyph unicode="&#xe994;" glyph-name="cog" d="M933.79 349.75c-53.726 93.054-21.416 212.304 72.152 266.488l-100.626 174.292c-28.75-16.854-62.176-26.518-97.846-26.518-107.536 0-194.708 87.746-194.708 195.99h-201.258c0.266-33.41-8.074-67.282-25.958-98.252-53.724-93.056-173.156-124.702-266.862-70.758l-100.624-174.292c28.97-16.472 54.050-40.588 71.886-71.478 53.638-92.908 21.512-211.92-71.708-266.224l100.626-174.292c28.65 16.696 61.916 26.254 97.4 26.254 107.196 0 194.144-87.192 194.7-194.958h201.254c-0.086 33.074 8.272 66.57 25.966 97.218 53.636 92.906 172.776 124.594 266.414 71.012l100.626 174.29c-28.78 16.466-53.692 40.498-71.434 71.228zM512 240.668c-114.508 0-207.336 92.824-207.336 207.334 0 114.508 92.826 207.334 207.336 207.334 114.508 0 207.332-92.826 207.332-207.334-0.002-114.51-92.824-207.334-207.332-207.334z" />
<glyph unicode="&#xe9ac;" glyph-name="bin" d="M160 640v-640c0-35.2 28.8-64 64-64h576c35.2 0 64 28.8 64 64v640h-704zM352 64h-64v448h64v-448zM480 64h-64v448h64v-448zM608 64h-64v448h64v-448zM736 64h-64v448h64v-448zM880 832h-208v80c0 26.4-21.6 48-48 48h-224c-26.4 0-48-21.6-48-48v-80h-208c-26.4 0-48-21.6-48-48v-80h832v80c0 26.4-21.6 48-48 48zM608 832h-192v63.198h192v-63.198z" />
<glyph unicode="&#xea03;" glyph-name="point-up" d="M960 352v160c0 52.934-43.066 96-96 96-17.104 0-33.176-4.494-47.098-12.368-17.076 26.664-46.958 44.368-80.902 44.368-24.564 0-47.004-9.274-64-24.504-16.996 15.23-39.436 24.504-64 24.504-11.214 0-21.986-1.934-32-5.484v229.484c0 52.934-43.066 96-96 96s-96-43.066-96-96v-394.676l-176.018 93.836c-14.536 8.4-31.126 12.84-47.982 12.84-52.934 0-96-43.066-96-96 0-26.368 10.472-50.954 29.49-69.226 0.248-0.238 0.496-0.47 0.75-0.7l239.17-218.074h-45.41c-17.672 0-32-14.326-32-32v-192c0-17.674 14.328-32 32-32h640c17.674 0 32 14.326 32 32v192c0 17.674-14.326 32-32 32h-44.222l72.844 145.69c2.222 4.442 3.378 9.342 3.378 14.31zM896 96c0-17.674-14.326-32-32-32s-32 14.326-32 32 14.326 32 32 32 32-14.326 32-32zM896 359.554l-83.776-167.554h-383.826l-290.818 265.166c-6.18 6.070-9.58 14.164-9.58 22.834 0 17.644 14.356 32 32 32 5.46 0 10.612-1.31 15.324-3.894 0.53-0.324 1.070-0.632 1.622-0.926l224-119.416c9.92-5.288 21.884-4.986 31.52 0.8 9.638 5.782 15.534 16.196 15.534 27.436v448c0 17.644 14.356 32 32 32s32-14.356 32-32v-320c0-17.672 14.326-32 32-32s32 14.328 32 32c0 17.644 14.356 32 32 32s32-14.356 32-32c0-17.672 14.326-32 32-32s32 14.328 32 32c0 17.644 14.356 32 32 32s32-14.356 32-32v-32c0-17.672 14.326-32 32-32s32 14.328 32 32c0 17.644 14.356 32 32 32s32-14.356 32-32v-152.446z" />
<glyph unicode="&#xea0f;" glyph-name="cross" d="M1014.66 137.341c-0.004 0.004-0.008 0.008-0.012 0.010l-310.644 310.65 310.644 310.65c0.004 0.004 0.008 0.006 0.012 0.010 3.344 3.346 5.762 7.254 7.312 11.416 4.246 11.376 1.824 24.682-7.324 33.83l-146.746 146.746c-9.148 9.146-22.45 11.566-33.828 7.32-4.16-1.55-8.070-3.968-11.418-7.31 0-0.004-0.004-0.006-0.008-0.010l-310.648-310.652-310.648 310.65c-0.004 0.004-0.006 0.006-0.010 0.010-3.346 3.342-7.254 5.76-11.414 7.31-11.38 4.248-24.682 1.826-33.83-7.32l-146.748-146.748c-9.148-9.148-11.568-22.452-7.322-33.828 1.552-4.16 3.97-8.072 7.312-11.416 0.004-0.002 0.006-0.006 0.010-0.010l310.65-310.648-310.65-310.652c-0.002-0.004-0.006-0.006-0.008-0.010-3.342-3.346-5.76-7.254-7.314-11.414-4.248-11.376-1.826-24.682 7.322-33.83l146.748-146.746c9.15-9.148 22.452-11.568 33.83-7.322 4.16 1.552 8.070 3.97 11.416 7.312 0.002 0.004 0.006 0.006 0.010 0.010l310.648 310.65 310.648-310.65c0.004-0.002 0.008-0.006 0.012-0.008 3.348-3.344 7.254-5.762 11.414-7.314 11.378-4.246 24.684-1.826 33.828 7.322l146.746 146.748c9.148 9.148 11.57 22.454 7.324 33.83-1.552 4.16-3.97 8.068-7.314 11.414z" />
<glyph unicode="&#xea10;" glyph-name="checkmark" d="M864 848l-480-480-224 224-160-160 384-384 640 640z" />
<glyph unicode="&#xea1f;" glyph-name="return" d="M528 800v-320l320 320v-704l-320 320v-320l-352 352z" />
</font>
</defs>
</svg>
